<svg xmlns="http://www.w3.org/2000/svg" viewBox="0 0 375 500" width="375" height="500">
  <rect width="375" height="500" fill="#0A0A0A"/>
  <rect width="375" height="40" fill="#1A1A1A"/>
  <rect x="16" y="14" width="60" height="12" rx="3" fill="#D4AF37"/>
  <rect x="280" y="14" width="30" height="12" rx="3" fill="#333"/>
  <rect x="316" y="14" width="30" height="12" rx="3" fill="#333"/>
  <rect x="16" y="56" width="343" height="150" rx="8" fill="#1A1A1A"/>
  <rect x="40" y="100" width="180" height="14" rx="3" fill="#D4AF37"/>
  <rect x="40" y="122" width="240" height="8" rx="2" fill="#444"/>
  <rect x="40" y="136" width="200" height="8" rx="2" fill="#444"/>
  <rect x="40" y="160" width="100" height="28" rx="6" fill="#D4AF37"/>
  <rect x="16" y="222" width="107" height="100" rx="6" fill="#1A1A1A"/>
  <rect x="28" y="234" width="83" height="40" rx="4" fill="#222"/>
  <rect x="28" y="282" width="60" height="8" rx="2" fill="#F5F5F0" opacity=".7"/>
  <rect x="28" y="296" width="83" height="6" rx="2" fill="#444"/>
  <rect x="134" y="222" width="107" height="100" rx="6" fill="#1A1A1A"/>
  <rect x="146" y="234" width="83" height="40" rx="4" fill="#222"/>
  <rect x="146" y="282" width="60" height="8" rx="2" fill="#F5F5F0" opacity=".7"/>
  <rect x="146" y="296" width="83" height="6" rx="2" fill="#444"/>
  <rect x="252" y="222" width="107" height="100" rx="6" fill="#1A1A1A"/>
  <rect x="264" y="234" width="83" height="40" rx="4" fill="#222"/>
  <rect x="264" y="282" width="60" height="8" rx="2" fill="#F5F5F0" opacity=".7"/>
  <rect x="264" y="296" width="83" height="6" rx="2" fill="#444"/>
  <rect x="112" y="345" width="150" height="36" rx="8" fill="#D4AF37"/>
  <rect x="142" y="357" width="90" height="12" rx="3" fill="#0A0A0A"/>
  <rect x="16" y="410" width="343" height="1" fill="#222"/>
  <rect width="375" height="40" y="460" fill="#1A1A1A"/>
  <rect x="16" y="476" width="50" height="8" rx="2" fill="#444"/>
  <rect x="280" y="476" width="80" height="8" rx="2" fill="#444"/>
</svg>